<svg width="64" height="64" viewBox="0 0 64 64" xmlns="http://www.w3.org/2000/svg" role="img">
  <title>DevDiary.uk icon</title>
  <rect x="0" y="0" width="64" height="64" rx="12" fill="#0F2744"/>
  <rect x="12" y="14" width="18" height="36" rx="2" fill="#1C2B3A"/>
  <rect x="34" y="14" width="18" height="36" rx="2" fill="#1A6BDB"/>
  <rect x="30" y="14" width="4" height="36" fill="#0F2744"/>
  <rect x="15" y="22" width="12" height="2" rx="1" fill="#2D4060"/>
  <rect x="15" y="27" width="9" height="2" rx="1" fill="#2D4060"/>
  <rect x="15" y="32" width="11" height="2" rx="1" fill="#2D4060"/>
  <rect x="15" y="37" width="7" height="2" rx="1" fill="#2D4060"/>
  <rect x="37" y="22" width="6" height="2" rx="1" fill="#7BB8F4"/>
  <rect x="44" y="22" width="5" height="8" rx="1" fill="#7BB8F4"/>
  <rect x="37" y="30" width="11" height="2" rx="1" fill="#7BB8F4" opacity="0.6"/>
  <rect x="37" y="35" width="8" height="2" rx="1" fill="#7BB8F4" opacity="0.4"/>
</svg>
